HIERARCHY
ROOT Hips
{
	OFFSET -32.860001 56.121803 44.745396
	CHANNELS 6 Xposition Yposition Zposition Zrotation Xrotation Yrotation
	JOINT Chest
	{
		OFFSET -0.637402 0.831600 5.390099
		CHANNELS 6 Xposition Yposition Zposition Zrotation Xrotation Yrotation
		JOINT Chest2
		{
			OFFSET 0.000000 0.000000 4.429901
			CHANNELS 6 Xposition Yposition Zposition Zrotation Xrotation Yrotation
			JOINT Neck
			{
				OFFSET 0.000000 0.000000 10.301395
				CHANNELS 6 Xposition Yposition Zposition Zrotation Xrotation Yrotation
				JOINT Head
				{
					OFFSET 0.000000 0.000000 2.173897
					CHANNELS 6 Xposition Yposition Zposition Zrotation Xrotation Yrotation
					End Site
					{
						OFFSET 0.000000 0.000000 8.298004
					}
				}
			}
			JOINT LeftCollar
			{
				OFFSET 2.142401 -0.572701 5.717800
				CHANNELS 6 Xposition Yposition Zposition Zrotation Xrotation Yrotation
				JOINT LeftShoulder
				{
					OFFSET 5.674000 0.000000 0.000000
					CHANNELS 6 Xposition Yposition Zposition Zrotation Xrotation Yrotation
					JOINT LeftElbow
					{
						OFFSET 0.000000 0.000000 -12.238701
						CHANNELS 6 Xposition Yposition Zposition Zrotation Xrotation Yrotation
						JOINT LeftWrist
						{
							OFFSET 0.000000 0.000000 -10.253700
							CHANNELS 6 Xposition Yposition Zposition Zrotation Xrotation Yrotation
							End Site
							{
								OFFSET 0.000000 0.000000 -2.173901
							}
						}
					}
				}
			}
			JOINT RightCollar
			{
				OFFSET -2.882599 -1.580101 6.695801
				CHANNELS 6 Xposition Yposition Zposition Zrotation Xrotation Yrotation
				JOINT RightShoulder
				{
					OFFSET -4.235600 0.000000 0.000000
					CHANNELS 6 Xposition Yposition Zposition Zrotation Xrotation Yrotation
					JOINT RightElbow
					{
						OFFSET 0.000000 0.000000 -10.709900
						CHANNELS 6 Xposition Yposition Zposition Zrotation Xrotation Yrotation
						JOINT RightWrist
						{
							OFFSET 0.000000 0.000000 -11.716801
							CHANNELS 6 Xposition Yposition Zposition Zrotation Xrotation Yrotation
							End Site
							{
								OFFSET 0.000000 0.000000 -2.173901
							}
						}
					}
				}
			}
		}
	}
	JOINT LeftHip
	{
		OFFSET 2.279499 0.210400 -2.475502
		CHANNELS 6 Xposition Yposition Zposition Zrotation Xrotation Yrotation
		JOINT LeftKnee
		{
			OFFSET 0.000000 -0.000004 -20.742800
			CHANNELS 6 Xposition Yposition Zposition Zrotation Xrotation Yrotation
			JOINT LeftAnkle
			{
				OFFSET 0.000000 0.000000 -16.666000
				CHANNELS 6 Xposition Yposition Zposition Zrotation Xrotation Yrotation
				End Site
				{
					OFFSET 0.000000 -8.310898 0.000000
				}
			}
		}
	}
	JOINT RightHip
	{
		OFFSET -1.961899 0.232300 -2.727402
		CHANNELS 6 Xposition Yposition Zposition Zrotation Xrotation Yrotation
		JOINT RightKnee
		{
			OFFSET 0.000000 -0.000004 -20.526800
			CHANNELS 6 Xposition Yposition Zposition Zrotation Xrotation Yrotation
			JOINT RightAnkle
			{
				OFFSET 0.000000 0.000000 -16.867300
				CHANNELS 6 Xposition Yposition Zposition Zrotation Xrotation Yrotation
				End Site
				{
					OFFSET 0.000000 -7.186401 0.000000
				}
			}
		}
	}
}
MOTION
Frames: 9
Frame Time: 0.041667
13.718216 -33.966904 43.711098 4075.211277 2.332007 1.318049 -0.637399 0.831599 5.390090 -9.432151 11.190841 14.339593 0.000000 -0.000001 4.429893 2.037567 -1.998652 -0.226916 -0.000006 0.000004 10.301393 364.595033 21.608866 -15.190459 0.000004 0.000003 2.173897 -359.710355 2.052662 -0.566923 2.142399 -0.572692 5.717799 -17.420811 -5.780909 20.778988 5.674006 -0.000005 0.000001 855.625994 -538.005204 140.937538 -0.000000 -0.000006 -12.238695 292.972714 -555.353502 -163.753567 0.000005 0.000001 -10.253701 1653.173850 180.552444 352.053222 -2.882601 -1.580091 6.695797 2.408394 1.852191 29.986870 -4.235607 -0.000000 0.000008 -1541.087823 231.581279 -418.753625 -0.000006 0.000005 -10.709902 479.974988 -147.384527 131.283476 0.000017 -0.000008 -11.716799 -475.187025 14.524517 -11.819070 2.279500 0.210405 -2.475505 424.578656 -34.936660 21.001198 -0.000002 -0.000012 -20.742804 -1050.341354 178.367112 -114.319704 -0.000004 0.000006 -16.666000 1160.579405 4.951291 42.710361 -1.961899 0.232296 -2.727402 -1144.602008 -40.704512 -15.503682 0.000002 -0.000002 -20.526808 924.978969 117.610229 -182.216333 0.000001 0.000004 -16.867300 -22.924487 31.318968 -9.612141
14.096115 -34.671509 44.110596 4076.077235 2.611796 1.829234 -0.637407 0.831605 5.390100 -12.560923 10.264057 15.443804 0.000002 0.000005 4.429896 2.956628 -2.083562 -0.249254 0.000002 0.000004 10.301388 366.522048 21.284997 -16.682879 -0.000002 -0.000005 2.173904 -359.551321 2.373274 0.012596 2.142405 -0.572697 5.717805 -18.000250 -4.735138 21.765450 5.674005 0.000007 0.000002 855.081600 -541.566847 138.685748 0.000000 0.000001 -12.238701 299.887652 -551.543786 -170.593154 0.000000 0.000004 -10.253698 1651.870213 177.864328 352.463989 -2.882604 -1.580095 6.695796 -0.082579 -0.434735 30.844632 -4.235600 -0.000004 0.000002 -1543.785475 230.813184 -414.844599 0.000002 0.000002 -10.709904 478.646652 -147.868405 131.484857 0.000000 -0.000002 -11.716800 -484.607113 18.385594 -8.499796 2.279501 0.210402 -2.475500 425.347845 -35.271879 20.042058 0.000000 -0.000005 -20.742800 -1049.438458 176.620728 -115.569874 0.000002 -0.000004 -16.666000 1158.942127 5.534926 41.083905 -1.961897 0.232302 -2.727400 -1136.286663 -38.319895 -9.351435 0.000003 -0.000010 -20.526798 916.663624 122.278186 -181.998573 -0.000000 0.000000 -16.867298 -24.278368 31.106338 -9.445571
14.456303 -35.350204 44.408089 4076.749107 2.876572 2.302312 -0.637403 0.831600 5.390100 -15.755030 9.188618 16.226460 0.000000 0.000000 4.429903 3.926838 -2.137594 -0.260480 0.000000 0.000001 10.301397 368.482340 20.890245 -17.689860 -0.000002 0.000006 2.173906 -359.292430 2.702680 0.499084 2.142401 -0.572698 5.717800 -17.686985 -5.436569 22.046024 5.674003 0.000001 -0.000005 853.805775 -547.128205 137.739357 0.000004 0.000001 -12.238697 306.965913 -548.097874 -175.530152 -0.000000 -0.000001 -10.253699 1653.060633 173.042610 352.252199 -2.882604 -1.580095 6.695795 -4.368272 -1.126404 31.050282 -4.235598 -0.000011 -0.000017 -1545.503623 229.110691 -410.179497 0.000002 -0.000004 -10.709909 476.513885 -149.140541 133.135591 0.000004 0.000001 -11.716802 -493.774592 21.788694 -4.794023 2.279502 0.210403 -2.475500 425.424398 -35.763192 18.935998 -0.000001 -0.000010 -20.742802 -1047.786208 175.105068 -115.646359 0.000002 0.000009 -16.666004 1157.705699 5.925224 39.870813 -1.961903 0.232304 -2.727402 -1129.339322 -35.646515 -4.913406 0.000009 -0.000004 -20.526794 911.340666 126.193906 -183.551963 0.000003 0.000001 -16.867302 -25.796274 30.095405 -9.954272
14.787216 -35.985504 44.592598 4076.976416 3.074946 2.705783 -0.637407 0.831598 5.390100 -18.682475 8.077108 16.686156 0.000000 0.000006 4.429904 4.845389 -2.132792 -0.265539 0.000004 0.000001 10.301394 370.546341 20.432038 -18.316920 -0.000004 -0.000009 2.173900 -359.029686 3.026852 0.859330 2.142403 -0.572698 5.717800 -16.811237 -6.124043 21.511088 5.674003 0.000004 -0.000003 851.805678 -553.380069 137.282144 -0.000000 0.000006 -12.238699 134.201852 -536.182308 -181.176696 0.000003 -0.000008 -10.253695 1477.754484 160.577570 350.633307 -2.882597 -1.580096 6.695797 -6.324867 -3.235661 31.026872 -4.235609 -0.000002 -0.000006 -1544.627173 231.902353 -404.892439 0.000001 0.000003 -10.709902 486.094291 -147.155073 137.686696 0.000000 -0.000010 -11.716806 -506.796703 23.747180 -1.959433 2.279503 0.210403 -2.475500 425.294979 -36.200214 17.859435 -0.000001 -0.000006 -20.742805 -1047.149743 175.802417 -114.353500 0.000002 0.000005 -16.666002 1158.604005 5.971572 40.482381 -1.961896 0.232298 -2.727397 -1124.189578 -33.263513 -2.299028 0.000001 -0.000002 -20.526798 908.113648 129.101941 -185.312881 -0.000005 -0.000001 -16.867298 -27.230986 28.660625 -10.142909
15.073208 -36.562485 44.666893 4076.507373 3.234057 3.065898 -0.637403 0.831597 5.390094 -21.080780 6.936605 16.726247 0.000004 0.000002 4.429898 5.590962 -2.059077 -0.289808 -0.000002 0.000004 10.301403 372.799183 19.967097 -18.574440 -0.000002 -0.000001 2.173910 -358.849478 3.317387 1.197879 2.142398 -0.572702 5.717807 -15.389946 -6.829942 20.384160 5.674007 -0.000004 0.000004 849.748534 -560.025624 137.448896 -0.000002 0.000006 -12.238699 141.202181 -538.223169 -179.684546 0.000005 -0.000003 -10.253698 1413.118601 149.127167 454.945459 -2.882601 -1.580101 6.695801 -7.871471 -4.714528 30.667850 -4.235599 0.000003 -0.000010 -1554.686785 227.675709 -408.990717 0.000004 0.000002 -10.709909 477.354162 -151.830816 137.960792 0.000008 0.000000 -11.716802 -506.066201 23.854519 -1.747932 2.279499 0.210400 -2.475508 425.383526 -36.420526 16.987567 -0.000002 -0.000010 -20.742805 -1047.602284 178.653597 -111.823113 -0.000000 0.000009 -16.666000 1161.459462 5.955554 42.318117 -1.961885 0.232298 -2.727404 -1120.482479 -31.572549 -1.138904 0.000000 -0.000004 -20.526800 906.726737 130.888486 -187.029267 0.000000 0.000006 -16.867298 -28.449794 27.005608 -10.109483
15.309509 -37.067604 44.640697 4075.287775 3.342996 3.383601 -0.637401 0.831595 5.390096 -22.715519 5.904221 16.324405 -0.000002 0.000001 4.429896 6.133475 -1.980454 -0.294535 0.000001 0.000000 10.301390 375.010252 19.604849 -18.460075 0.000004 0.000001 2.173899 -358.746315 3.517919 1.444306 2.142403 -0.572697 5.717800 -13.620484 -7.417752 18.544763 5.674004 0.000002 0.000001 847.546372 -566.422014 138.274844 0.000002 -0.000005 -12.238700 147.987386 -539.688162 -178.909456 0.000003 -0.000002 -10.253702 1431.068775 176.690027 509.625549 -2.882601 -1.580101 6.695788 -9.031701 -5.628536 30.139955 -4.235612 -0.000006 0.000002 -1559.951822 226.985286 -409.912164 0.000005 -0.000004 -10.709915 474.708584 -155.196392 139.044142 0.000002 0.000000 -11.716795 -501.568385 22.485630 -6.152236 2.279501 0.210402 -2.475504 424.951011 -36.221863 15.843440 -0.000005 -0.000002 -20.742802 -1046.920031 180.360803 -108.378423 -0.000001 0.000000 -16.666000 1163.194002 5.809961 44.193342 -1.961891 0.232296 -2.727404 -1117.945583 -30.641987 -1.051440 -0.000001 -0.000007 -20.526794 906.761817 131.643809 -188.413186 -0.000000 0.000000 -16.867300 -29.301040 25.403007 -9.941681
15.502705 -37.495102 44.529896 4073.421658 3.336222 3.688112 -0.637402 0.831606 5.390101 -23.626497 5.157973 15.510800 0.000004 -0.000003 4.429898 6.417683 -1.878728 -0.292618 -0.000004 -0.000003 10.301390 377.060457 19.346034 -17.861454 -0.000009 -0.000003 2.173895 -358.683778 3.653716 1.636332 2.142401 -0.572696 5.717796 -11.610961 -7.927028 16.055384 5.674001 0.000006 0.000005 845.381365 -572.290021 139.810557 -0.000004 0.000005 -12.238698 154.327346 -540.598107 -178.576471 0.000004 0.000002 -10.253700 1451.663927 174.035146 514.715187 -2.882609 -1.580095 6.695796 -9.791901 -6.018186 29.483133 -4.235607 0.000002 0.000000 -1564.759183 226.928404 -411.208179 0.000002 -0.000002 -10.709900 474.360190 -156.782034 141.200651 0.000005 -0.000002 -11.716805 -494.001847 19.640098 -13.222170 2.279491 0.210402 -2.475499 422.832150 -35.420900 13.690177 -0.000002 -0.000010 -20.742805 -1043.961411 179.123241 -104.529884 -0.000004 -0.000001 -16.666004 1162.393176 6.135675 44.377228 -1.961901 0.232294 -2.727401 -1116.447422 -30.379906 -1.733478 0.000005 -0.000008 -20.526794 907.978410 131.381079 -189.553814 0.000004 -0.000001 -16.867300 -29.739084 24.151769 -9.755187
15.664207 -37.841995 44.350990 4071.048030 3.191954 3.993870 -0.637397 0.831601 5.390098 -24.075196 4.723478 14.334788 0.000004 -0.000005 4.429892 6.597707 -1.663000 -0.279818 0.000005 0.000002 10.301386 379.024573 19.089467 -16.782933 -0.000005 -0.000004 2.173898 -358.631459 3.761482 1.791274 2.142397 -0.572698 5.717796 -9.858181 -8.568603 13.365962 5.673999 0.000004 0.000001 843.912055 -577.847828 141.812677 -0.000002 0.000000 -12.238696 160.062970 -541.146490 -178.605048 0.000006 -0.000001 -10.253701 1471.800964 173.348166 513.194733 -2.882601 -1.580096 6.695799 -7.839502 -7.553884 29.158218 -4.235605 0.000002 -0.000002 -1572.680672 225.936729 -415.843391 0.000006 -0.000004 -10.709892 474.335983 -158.689419 143.856816 -0.000001 -0.000006 -11.716809 -483.056987 15.266600 -22.809929 2.279506 0.210403 -2.475504 419.137564 -33.986051 10.790382 -0.000000 -0.000009 -20.742802 -1039.848763 177.163769 -100.723290 -0.000001 0.000002 -16.666000 1160.696666 6.492846 44.308660 -1.961892 0.232300 -2.727402 -1115.823853 -30.528292 -2.948386 -0.000003 -0.000007 -20.526798 910.210789 130.452952 -190.668883 0.000001 -0.000001 -16.867302 -29.864732 23.043921 -9.609654
15.806309 -38.111702 44.121788 4068.368411 2.996724 4.327711 -0.637405 0.831599 5.390098 -24.102513 4.534709 12.807327 -0.000004 -0.000001 4.429894 6.619622 -1.560425 -0.272296 0.000001 0.000000 10.301394 380.805941 19.094221 -15.385713 0.000001 0.000000 2.173910 -358.540016 3.815797 1.955748 2.142397 -0.572699 5.717803 -8.294638 -8.854921 10.664301 5.673999 -0.000005 0.000010 842.623608 -582.950089 143.989745 -0.000001 -0.000005 -12.238702 165.347487 -541.315059 -178.493880 -0.000004 0.000001 -10.253698 1487.668968 174.700420 510.181909 -2.882604 -1.580095 6.695801 -7.473513 -6.876916 28.409438 -4.235597 -0.000002 0.000010 -1577.621248 226.610117 -418.160956 0.000007 0.000004 -10.709896 475.375811 -160.452864 147.491324 0.000001 -0.000006 -11.716805 -474.776722 10.068844 -31.424386 2.279505 0.210405 -2.475497 413.163006 -31.796399 7.193584 -0.000001 -0.000002 -20.742805 -1033.811969 173.902859 -97.427096 -0.000005 0.000001 -16.666000 1157.836074 6.779925 43.546684 -1.961897 0.232302 -2.727402 -1115.526931 -30.859580 -4.366843 0.000009 0.000001 -20.526800 912.905708 129.212549 -191.936157 0.000000 -0.000003 -16.867296 -29.806389 22.041999 -9.488724
